# xmcd
#
# Track frame offsets:
#       150
#       17107
#       36984
#       64207
#       111543
#       132041
#       156157
#       180308
#       211861
#       271944
#       315074
#
# Disc length: 4668 seconds
#
# Revision: 0
# Processed by: cddbd v1.5.2PL0 Copyright (c) Steve Scherf et al.
# Submitted via: WhereIsIt 3.84
#
DISCID=8f123a0b
DTITLE=Modern Elektric Blues
DYEAR=1900
DGENRE=
TTITLE0=After Dark
TTITLE1=Dirty Occupation
TTITLE2=Is this what they call the Blu
TTITLE3=Voodoo Chile
TTITLE4=Back to the house
TTITLE5=Bridge In Tennesee
TTITLE6=Crossword Blues
TTITLE7=Cold Wind Blowin'
TTITLE8=I'm Trying
TTITLE9=Dreamin' Girl
TTITLE10=Where will it end?!
EXTD=
EXTT0=
EXTT1=
EXTT2=
EXTT3=
EXTT4=
EXTT5=
EXTT6=
EXTT7=
EXTT8=
EXTT9=
EXTT10=
PLAYORDER=
